Coordinates
version=1
nRows=14
nColumns=24
inDegrees=yes

Units are S.I. units (second, meters, Newtons, ...)
Angles are in degrees.

endheader
time	pelvis_tilt	pelvis_list	pelvis_rotation	pelvis_tx	pelvis_ty	pelvis_tz	hip_flexion_r	hip_adduction_r	hip_rotation_r	knee_angle_r	ankle_angle_r	subtalar_angle_r	mtp_angle_r	hip_flexion_l	hip_adduction_l	hip_rotation_l	knee_angle_l	ankle_angle_l	subtalar_angle_l	mtp_angle_l	lumbar_extension	lumbar_bending	lumbar_rotation
     15.30000000	     -1.15383650	     -3.67636677	   -268.46682967	      0.02642867	      0.13559079	     -1.91345996	      1.28399239	      1.78846933	    -16.20460207	     -9.40757628	      4.25924001	     -3.51483935	      5.21864215	     26.81544207	     -5.54478595	     -6.78418223	    -48.69516264	     -6.02079926	     11.21818181	     14.52449633	     -7.60925536	     -4.34155330	      2.87234996
     15.30500000	     -1.20479884	     -3.74608137	   -268.66727676	      0.02679039	      0.13518656	     -1.91277910	      0.84187755	      1.81515541	    -16.04968135	     -9.06704818	      4.88274998	     -3.27070988	      3.48006873	     27.18930475	     -5.38729048	     -6.82203214	    -47.42761714	     -5.65785536	     11.09524992	     14.17674256	     -7.58619158	     -4.46516834	      3.17046363
     15.31000000	     -1.20780656	     -3.83669972	   -268.83543835	      0.02693858	      0.13466568	     -1.91221126	      0.43589107	      1.86723827	    -16.01906916	     -8.81283877	      5.10695349	     -3.14091548	      3.50931929	     27.57588568	     -5.25709961	     -6.79502855	    -46.14797487	     -5.31063865	     10.89863461	     14.16678615	     -7.52703694	     -4.51780925	      3.46718617
     15.31500000	     -1.23014769	     -3.90332497	   -268.99744236	      0.02720926	      0.13417023	     -1.91151167	      0.03815329	      1.88502196	    -16.15700763	     -8.56627283	      5.18108710	     -2.73865999	      3.54228282	     27.91325347	     -5.12241211	     -6.77172426	    -44.79143259	     -4.99825022	     10.72568842	     13.80232612	     -7.51377946	     -4.60016492	      3.70756627
     15.32000000	     -1.23423697	     -3.96512649	   -269.15295251	      0.02746783	      0.13357609	     -1.91081434	     -0.38776435	      1.94393669	    -16.02707799	     -8.32367047	      5.44731026	     -2.70227167	      3.78369761	     28.20597376	     -4.97336279	     -6.59355867	    -43.41178438	     -4.37236700	     10.49174015	     12.34968478	     -7.50712778	     -4.66792904	      3.97742993
     15.32500000	     -1.22560768	     -4.04724322	   -269.29462409	      0.02765198	      0.13284418	     -1.91007241	     -0.76304422	      1.98102100	    -16.17083695	     -8.06707394	      5.53454029	     -2.50712097	      3.80046681	     28.52553183	     -4.85552297	     -6.49674304	    -41.98719053	     -4.05229657	     10.43009925	     12.38752643	     -7.48471663	     -4.72219790	      4.27799997
     15.33000000	     -1.20594022	     -4.12428520	   -269.42882868	      0.02802175	      0.13208028	     -1.90928989	     -1.14965950	      2.07704678	    -15.97554693	     -7.88732876	      5.84894337	     -2.44915590	      3.85941973	     28.82762654	     -4.76635383	     -6.38941813	    -40.53325200	     -3.80631254	     10.24972898	     12.38464753	     -7.47810590	     -4.78133960	      4.50023061
     15.33500000	     -1.17636083	     -4.22968571	   -269.58286636	      0.02810423	      0.13118870	     -1.90864901	     -1.48570972	      2.14179433	    -15.90507882	     -7.72730282	      6.17999544	     -2.32854355	      3.86751799	     29.12499297	     -4.65296677	     -6.23078637	    -39.04560182	     -3.51190429	      9.81237121	     12.17982821	     -7.41878670	     -4.79400481	      4.78536076
     15.34000000	     -1.13702171	     -4.26577289	   -269.71856194	      0.02830841	      0.13033004	     -1.90799146	     -1.92276660	      2.23336170	    -15.81508496	     -7.52426886	      6.43666874	     -2.28170064	      3.89001929	     29.31317471	     -4.59116372	     -6.10510974	    -37.51297220	     -3.24235240	      9.68997315	     12.12688482	     -7.44420191	     -4.81877917	      5.03009206
     15.34500000	     -1.11072545	     -4.32041958	   -269.86020993	      0.02847476	      0.12940740	     -1.90733991	     -2.30464447	      2.29632257	    -15.71538054	     -7.38455367	      6.71328602	     -2.22621181	      3.90220504	     29.49789195	     -4.50396822	     -5.97541448	    -35.93456917	     -3.00795483	      9.42256215	     12.03317306	     -7.44941690	     -4.84876872	      5.28341012
     15.35000000	     -1.07093206	     -4.40528519	   -269.99311944	      0.02857287	      0.12838327	     -1.90665701	     -2.66139765	      2.36651481	    -15.68540892	     -7.23388613	      7.09410874	     -1.97885971	      3.51866995	     29.71092613	     -4.40414716	     -5.75698009	    -34.33711591	     -2.40207331	      8.74247457	      9.55261167	     -7.42492717	     -4.86079358	      5.50218961
     15.35500000	     -1.03746270	     -4.44422673	   -270.12494904	      0.02867673	      0.12737455	     -1.90604002	     -3.07244129	      2.43405668	    -15.54030977	     -7.08656556	      7.28962636	     -2.04520342	      3.55775980	     29.82687749	     -4.33077541	     -5.61299368	    -32.68673762	     -2.19766111	      8.45787776	      9.55394083	     -7.44130348	     -4.88706512	      5.77307956
     15.36000000	     -0.99267494	     -4.49134762	   -270.28992262	      0.02875853	      0.12635327	     -1.90542581	     -3.48868267	      2.51569536	    -15.33564097	     -6.90602992	      7.57779996	     -2.12621173	      3.49856601	     29.92507467	     -4.25345884	     -5.41837187	    -31.00365268	     -1.79072481	      7.74449461	      7.94426863	     -7.44574808	     -4.89834598	      6.05494769
     15.36500000	     -0.96322996	     -4.51845112	   -270.40912983	      0.02877280	      0.12532123	     -1.90490601	     -3.94333517	      2.57335356	    -15.24073333	     -6.71528501	      7.83745223	     -2.15915065	      3.55485993	     29.99855544	     -4.19131215	     -5.33136969	    -29.31165143	     -1.68689888	      7.17793923	      7.97665358	     -7.46769465	     -4.92173461	      6.28977035
